<svg xmlns="http://www.w3.org/2000/svg" width="100" height="118" viewBox="0 0 100 118">
  <g id="validation-2" transform="translate(-39.042 -0.002)">
    <path id="Path_115780" data-name="Path 115780" d="M186.792,162.583A20.792,20.792,0,1,0,166,141.792,20.814,20.814,0,0,0,186.792,162.583Zm-12.846-19.776a3.464,3.464,0,0,1,4.9,0l4.48,4.48,11.411-11.411a3.465,3.465,0,1,1,4.9,4.9l-13.861,13.861a3.464,3.464,0,0,1-4.9,0l-6.931-6.931A3.463,3.463,0,0,1,173.946,142.807Z" transform="translate(-97.75 -93.148)" fill="#fff"/>
    <path id="Path_115781" data-name="Path 115781" d="M47.013,46.3a3.47,3.47,0,0,0,0,4.9l6.674,6.69a3.483,3.483,0,0,1,.895,3.347l-2.441,9.14a3.467,3.467,0,0,0,2.444,4.244l9.117,2.45a3.458,3.458,0,0,1,2.441,2.45l2.444,9.137A3.456,3.456,0,0,0,72.82,91.1l9.114-2.447a3.45,3.45,0,0,1,3.342.9l6.674,6.69a3.449,3.449,0,0,0,4.888,0l6.674-6.69a3.47,3.47,0,0,1,3.338-.9l9.117,2.447a3.439,3.439,0,0,0,4.233-2.45l2.444-9.14a3.458,3.458,0,0,1,2.444-2.447l9.114-2.45a3.467,3.467,0,0,0,2.444-4.244L134.2,61.237a3.487,3.487,0,0,1,.895-3.35l6.674-6.69a3.47,3.47,0,0,0,0-4.9l-6.674-6.69a3.483,3.483,0,0,1-.895-3.347l2.441-9.14a3.467,3.467,0,0,0-2.444-4.244l-9.117-2.45a3.458,3.458,0,0,1-2.441-2.45L120.2,8.838a3.457,3.457,0,0,0-4.233-2.45l-9.114,2.447a3.479,3.479,0,0,1-3.342-.9L96.836,1.017a3.449,3.449,0,0,0-4.888,0L85.275,7.938a3.484,3.484,0,0,1-3.338.9L72.819,6.388a3.477,3.477,0,0,0-4.233,2.45l-2.444,9.14A3.458,3.458,0,0,1,63.7,20.425l-9.114,2.45a3.467,3.467,0,0,0-2.444,4.244l2.441,9.137a3.487,3.487,0,0,1-.895,3.35Zm47.38-25.272A27.722,27.722,0,1,1,66.74,48.746,27.719,27.719,0,0,1,94.393,21.024Z" transform="translate(-5.351 0)" fill="#fff"/>
    <path id="Path_115782" data-name="Path 115782" d="M322.426,355.641l-1.932,7.2a10.38,10.38,0,0,1-12.748,7.347l-7.191-1.926-3.034,3.034,10.056,17.647a3.477,3.477,0,0,0,2.9,1.733h.1a3.468,3.468,0,0,0,2.893-1.557l7.58-11.717,13.739-.826a3.465,3.465,0,0,0,2.8-5.191l-9.905-17.157Z" transform="translate(-199.008 -272.678)" fill="#fff"/>
    <path id="Path_115783" data-name="Path 115783" d="M39.455,374.758a3.459,3.459,0,0,0,2.846,1.817l13.739.826,7.58,11.717a3.467,3.467,0,0,0,2.893,1.557h.1a3.477,3.477,0,0,0,2.9-1.733l10.056-17.647-3.034-3.034-7.208,1.929a10.3,10.3,0,0,1-2.694.359,10.413,10.413,0,0,1-10.037-7.7l-1.932-7.211-5.255-1.409-9.906,17.159A3.469,3.469,0,0,0,39.455,374.758Z" transform="translate(0 -272.672)" fill="#fff"/>
  </g>
</svg>
